<svg xmlns="http://www.w3.org/2000/svg" width="71" height="67">
    <path fill="#3D5F12" fill-rule="evenodd" d="M33.133 33.498c0 5.312-4.236 9.644-9.43 9.644s-9.43-4.332-9.43-9.644 4.236-9.641 9.43-9.641 9.43 4.329 9.43 9.641zm27.734 18.9c0 2.483-2.099 4.539-4.715 4.539-2.578 0-4.715-2.021-4.715-4.539 0-2.482 2.137-4.541 4.715-4.541 2.579 0 4.715 2.059 4.715 4.541zm0-37.898c0 2.539-2.099 4.643-4.715 4.643-2.578 0-4.715-2.068-4.715-4.643 0-2.539 2.137-4.643 4.715-4.643 2.579.282 4.715 2.418 4.715 4.996V14.5zM47 30.361c0-.516-.347-.995-.832-1.105l-5.374-.847c-.331-1.032-.773-2.026-1.252-3.021 1.031-1.436 2.136-2.762 3.194-4.199.138-.221.243-.442.243-.7 0-1.031-4.321-5.009-5.279-5.893-.221-.185-.479-.295-.773-.295-.258 0-.516.074-.737.258l-4.346 3.278c-.884-.442-1.805-.847-2.763-1.142l-.847-5.636c-.074-.515-.59-.92-1.105-.92h-6.852c-.515 0-.957.368-1.105.884-.478 1.805-.663 3.83-.847 5.672-.994.332-1.915.7-2.836 1.179l-4.236-3.315c-.221-.148-.479-.258-.774-.258-1.068 0-5.193 4.457-5.93 5.452-.184.22-.258.478-.258.736s.111.516.258.737c1.179 1.4 2.284 2.762 3.315 4.236-.479.921-.884 1.842-1.179 2.799l-5.709.884c-.479.074-.847.627-.847 1.105v6.815c0 .516.368.994.884 1.068l5.599.884c.331 1.031.773 2.026 1.289 3.021-1.068 1.436-2.173 2.799-3.241 4.199-.148.221-.258.442-.258.699 0 1.066 4.346 4.947 5.304 5.818.221.181.479.29.773.29.258 0 .553-.073.737-.254l4.347-3.228c.884.435 1.805.834 2.762 1.124l.847 5.55c.074.508.59.906 1.105.906h6.852c.515 0 .957-.362 1.105-.87.479-1.777.663-3.772.847-5.622.994-.29 1.915-.653 2.836-1.124l4.236 3.264c.221.145.479.254.774.254 1.068 0 5.193-4.425 5.913-5.408.173-.184.243-.442.243-.7 0-.294-.104-.515-.243-.736-1.162-1.4-2.267-2.763-3.298-4.236.479-.921.884-1.842 1.179-2.8l5.482-.884c.45-.073.797-.626.797-1.105v-6.814zm23.297 19.6c0-.544-4.752-1.052-5.489-1.124-.294-.653-.663-1.311-1.105-1.901.332-.736 1.879-4.42 1.879-5.083 0-.073-.037-.184-.147-.258-.442-.257-4.384-2.578-4.568-2.578l-.221.074c-1.252 1.252-2.357 2.689-3.389 4.125h-2.21c-.368-.552-3.131-4.199-3.61-4.199-.173 0-3.882 2.357-4.298 2.578-.104.074-.139.185-.139.258 0 .626 1.456 4.347 1.768 5.083-.416.59-.763 1.248-1.04 1.901-.693.072-5.166.58-5.166 1.124v5.078c0 .544 4.473 1.052 5.166 1.124.277.689.624 1.311 1.04 1.9C48.456 58.8 47 62.52 47 63.147c0 .073.035.184.139.257.416.258 4.125 2.616 4.298 2.616.479 0 3.242-3.684 3.61-4.236h2.21c.369.552 3.131 4.236 3.61 4.236.184 0 4.126-2.358 4.568-2.616.11-.073.147-.147.147-.257 0-.868-1.547-4.552-1.879-5.289.442-.589.811-1.204 1.105-1.878.737-.071 5.489-.567 5.489-1.099v-4.92zm0-38c0-.544-4.752-1.052-5.489-1.124-.294-.653-.663-1.311-1.105-1.9.332-1.726 1.879-5.41 1.879-6.073 0-.074-.037-.184-.147-.258-.442-.258-4.384-2.578-4.568-2.578l-.221.074c-1.252 1.252-2.357 2.688-3.389 4.125h-2.21c-.368-.553-3.131-4.199-3.61-4.199-.173 0-3.882 2.357-4.298 2.578-.104.074-.139.184-.139.258 0 .626 1.456 4.347 1.768 5.083-.416.59-.763 1.253-1.04 1.916-.693.073-5.166.589-5.166 1.142v5.156c0 .553 4.473 1.069 5.166 1.142.277.7.624 1.326 1.04 1.916-.312.736-1.768 4.457-1.768 5.083 0 .074.035.184.139.258.416.258 4.125 2.615 4.298 2.615.479 0 3.242-3.684 3.61-4.236h2.21c.369.552 3.131 4.236 3.61 4.236.184 1.126 4.126-1.231 4.568-1.489.11-.074.147-.148.147-.258 0-.663-1.547-4.347-1.879-5.083.442-.871.811-1.493 1.105-2.182.737-.072 5.489-.58 5.489-1.124v-5.078z"/>
</svg>
