<svg xmlns="http://www.w3.org/2000/svg" width="64" height="63">
    <path fill="#CF9D41" fill-rule="evenodd" d="M32.073.062C14.752.062.653 13.697.653 31.117c0 17.553 14.099 31.82 31.42 31.82 17.599 0 31.803-14.267 31.803-31.82 0-17.42-14.204-31.055-31.803-31.055zm11.406 20.959c.454-.049 1.197-.268 1.775-.084.454.021.826.049.289.112-.247.13-.619-.028-.908.013.371.117.908.35.743.875 1.074.61-.33 1.342-1.032 1.261.33.04-.702.651-.702.61-.595.203-1.331.203-1.58.57-.285.447.107 1.22-.427 1.057-.213.529-1.031.244-1.386.814.391.488-.391 1.338-.782.569-.356.163-.178.769-.534 1.119.142.255.178.51-.071.68.071-.042.498.383.605.426-.072.212-.214.382-.392.382.178.553-.213 1.149-.533 1.489-.413.341-1.526.681-1.69.766-.981.723-1.592 1.787.109 2.085.055 0 .055 1.295.109 1.333.109.461.382 1.805-.763 1.306-.545-.192-.872-1.267-1.003-1.69-.131-.46-.175-.46-.525-.949-.406.604-.453.17-.711-.128-.258-.911-.633-.836-1.216-1.061-.781.412-1.23.299-1.353-.337-.163.3.163.749.123.921-.205.861-.572.777-.899.194-.531-.553-1.675.626-2.288 0 .041 0 .205.389.327.583-.122.496-.406.208-.645.373-.278.366-.517.75-.758.942.52.96-.04 1.881 0 2.918 0 .767.52 2.246 1.281 2.711.367.211 1.593.296 1.96.127.572-.254.491-.718.695-1.225.204-.549.449-.803 1.062-.846 1.758-.076.69 1.395.203 2.155-.121.549-.162 1.183-.244 1.69.204.084.633.042 1.119.042 0-.169.071-.38.071-.507.14.422.609.549.75.042.164.507.654.887.742 1.479.087.591.71 1.224-.175 1.224-.45 0 .087.955.175 1.125.492.682 1.473 1.024 2.562.614 0 .319-.163 1.322-.762 1.413-.545.091-1.538-.866-1.363-1.345-.043.16-.175.297-.306.388-.437-.49-.897-.695-1.108-1.104-.046-.102-.974-1.597-.539-1.682-1.043.254-2.187-.169-2.718-.464-.858-.465-.981-1.69-2.043-1.521-.723.127-.922.422-1.765.085-.564-.212-1.047-.634-1.612-.93-.644-.38-1.773-.76-2.014-1.605-.242-.675-.162-1.444-.524-2.02-.242-.384-.968-1.152-1.45-1.152.442 0-.292-1.151-.371-1.267-.292-.499-2.013-1.875-1.65-2.726.091-.127-.908-.468-1.089-.51.181.425.227.893.453 1.276.228.425.5.77.772 1.154.5.691 1.143 1.536 1.089 2.38-.589.154-.408-.575-.589-.883-.318-.499-1.181-.499-1.408-1.036.091-.039.136-.039.227-.077.046-.653-1.089-1.198-.908-1.708-.635-.468-.635-1.361-1.089-1.957-.409-.553-1.09-.808-1.68-1.191-.227-.128-1.861-2.085-1.271-2.212-.908.212-1.357-1.98-1.225-2.468 0 0-.091 0-.091-.041.181-.488-.121-3.01.59-3.051-.499.041-.631-1.251-.499-1.505.09-.084.771.604.817.72.272-.175.544-.641.454-.825-.137-.166-.636-.312-.954-.437-.136-.042-1.777-.621-1.817-.563.161-.408.12-.816-.121-1.056-.765.823-.363-.635-.765-.771-.161-.045-.322-.181-.483-.362 2.335-4.335 5.955-7.457 10.313-9.607.273-.041.579-.041.791-.041.478.082.825.69 1.349 1.055.081-.203-.08-.527-.201-.73.121-.325.604-.406.886-.488.363-.039.887-.119 1.209.042-.242-.36-.524-.678-.806-.983-.04.033-.161.106-.201.186-.444-.318-1.29.119-1.679.278-.212.159-.398.358-.61.477-.132.082-.212.082-.375.042.852-.638 2-1.148 3.305-1.512.238.132.475.364.831.595-.237-.165-.237.716-.158.875h2.999c.347.407.347 1.015.816 1.38.468-.365-.209-.77.104-1.135.104-.163 1.041-.364 1.354-.483.364-.199-.261-.478-.417-.557-.521-.212-2.313-.311-1.562-1.072.364-.293 1.666-.133 2.083.033.601.245 1.031.655.465 1.027.316.038 1.408.373 1.191.858.13-.224.347-.559.693-.559.389.037.53.891.919 1.148.623 1.055 1.185-1.074 1.279-.999-.422-.261.497-.597.891-.485.5.112 1.524 1.021.218.969 1.234.483 1.27 1.531-.35 1.49-.571-.041-.946-.951-1.251-.206-.211.245-.305.916-.885 1.318-.796.622-1.573.579-2.267.492.286.044-.613 1.033-.694 1.205-.245.301-.409.645-.49.989-.082.43 0 .903-.205 1.333.695-.215 1.062 1.118.776 1.161.858-.129 1.553-.129 2.37.171 1.043.061 1.536.309 1.676.934.094-.254.62-.13.883-.047.719.282.859.892 1.281 1.409.354.704.822 1.814 1.435 1.648.108-.08.901-.663.613-.99-.288-.346-.613-1.224-.324-1.713.288-.537.971-.683 1.15-1.366.287-1.123-.862-.977-.862-1.806 0-.382.467-.483.431-.887 0-.381-.539-1.201-.107-1.488.359-.246 2.081.164 2.403.41.323.246 1.328.574 1.399.943h-.179c.286.23.906.838.037 1 .383-.081 1.904.5 1.16.875.248-.187.455-.062.702-.312.289-.25.455-.644.826-.375.083.062.537-.918.785-.877.371.04.454.568.619.877.165.562.619.732.785 1.14.289.771.165 1.496 1.114 1.768.289.091 1.074-.408 1.033.272.165-.181.247-.317.247-.362.042.634.29 1.36.991 1.269 0 0 0 .9-.082 1.075-.248.525-.867.409-1.239.547-.124.008-1.115.472-.991.61-.537-.536-1.404-.536-2.106-.507-.743.139-1.445.231-2.147.553-.33.184-.828.329-1.412.378-.107.028-.285.769-.463.828.356-.117.658-.759 1.38-.8zm-6.843 37.041c-.054-.228-.109-.683-.109-.729-.054-.73.872-1.231.818-1.915-.6-.137-.763-.638-.654-1.185.109-.775.915-1.323 1.44-1.824.484-.502.591-1.55.484-2.189-.178-1.094-.178-2.234-.353-3.317.044.263.673.171.78.536.142-.319.213-.672.391-.911.142-.204.391-.272.604-.443.356-.204 1.102-.988 1.529-.511.356.409-.533.852-.071 1.227.142-.273 0-.682.284-.954.569-.614 1.27.068 2.154.238.702.171.95.375 1.486.75-.165-.136.661-.375.744-.409.784-.136 1.114.239 1.651.603.578.456 1.487.775 1.404 1.687.413.091.661.228.991.365.33.182.785.091 1.032.364-3.798 4.423-9.248 7.523-14.605 8.617z"/>
</svg>
