<svg xmlns="http://www.w3.org/2000/svg" width="58" height="65">
    <path fill="#7DA3B7" fill-rule="evenodd" d="M56.809 12.355C56.071 9.396 52.163-.642 48.132.363c-2.996.747-3.54 2.667-5.047 4.979-3.793 5.909-20.036 7.007-26.75 11.226C7.021 22.365-.027 32.539 2.807 43.904c.312 1.251.731 2.476 1.248 3.637.32.68 1.72 2.343 1.8 2.664.517 2.073-5.823 6.729-4.896 10.446.187.751.49.903.962 1.431 1.373 1.404 2.327 2.342 4.574 1.782 3.103-.773 3.425-8.598 5.209-9.043 1.426-.355 5.412 1.043 7.266 1.188 3.522.298 7.196-.01 10.62-.864 5.421-1.352 10.45-4.124 14.659-7.755 8.686-7.404 14.019-16.402 13.53-28.087-.104-2.395-.415-4.72-.97-6.948zM40.276 23.857c.312 1.251-.464 2.545-1.712 2.856-8.774 2.188-13.723 5.89-18.727 13.325-1.31 2.035-2.452 4.142-3.808 6.15-.356.545-.793.919-1.435 1.079-1.249.312-2.541-.467-2.853-1.718-.161-.643-.036-1.206.276-1.777 5.967-11.168 12.781-18.482 25.407-21.63 1.248-.311 2.54.464 2.852 1.715z"/>
</svg>
