<svg xmlns="http://www.w3.org/2000/svg" width="70" height="64">
    <path fill="#C45F4B" fill-rule="evenodd" d="M21.667 32c-1.861-2.673-2.898-5.881-2.898-9.125 0-.784.071-1.568.178-2.353-1.538.535-3.113.82-4.759.82-4.83 0-8.551-3.03-9.303-3.03-4.544 0-4.437 9.696-4.437 12.583 0 3.957 3.364 5.667 6.942 5.667h4.795c2.397-2.851 5.761-4.455 9.482-4.562zm38.322 22.705c0-8.055-1.896-20.424-12.38-20.424-1.217 0-5.654 4.955-12.81 4.955-7.157 0-11.594-4.955-12.81-4.955-10.484 0-12.381 12.369-12.381 20.424 0 5.775 3.829 9.232 9.554 9.232h31.273c5.726 0 9.554-3.457 9.554-9.232zM23.349 9.187c0-5.025-4.115-9.125-9.161-9.125-5.045 0-9.16 4.1-9.16 9.125 0 5.026 4.115 9.125 9.16 9.125 5.046 0 9.161-4.099 9.161-9.125zm25.19 13.688c0-7.557-6.154-13.688-13.74-13.688s-13.74 6.131-13.74 13.688 6.154 13.687 13.74 13.687 13.74-6.13 13.74-13.687zm20.597 8.02c0-2.887.107-12.583-4.424-12.583-.751 0-4.472 3.03-9.303 3.03-1.646 0-3.22-.285-4.759-.82.108.785.179 1.569.179 2.353 0 3.244-1.038 6.452-2.898 9.125 3.721.107 7.085 1.711 9.482 4.562h4.795c3.578 0 6.928-1.71 6.928-5.667zM64.569 9.187c0-5.025-4.115-9.125-9.16-9.125s-9.16 4.1-9.16 9.125c0 5.026 4.115 9.125 9.16 9.125s9.16-4.099 9.16-9.125z"/>
</svg>
